<?xml version="1.0" standalone="no"?>
<!DOCTYPE svg PUBLIC "-//W3C//DTD SVG 20010904//EN"
 "http://www.w3.org/TR/2001/REC-SVG-20010904/DTD/svg10.dtd">
<svg version="1.0" xmlns="http://www.w3.org/2000/svg"
 width="179.000000pt" height="179.000000pt" viewBox="0 0 179.000000 179.000000"
 preserveAspectRatio="xMidYMid meet">
<metadata>
Created by potrace 1.11, written by Peter Selinger 2001-2013
</metadata>
<g transform="translate(0.000000,179.000000) scale(0.100000,-0.100000)"
fill="#000000" stroke="none">
<path d="M805 1584 c-49 -19 -99 -39 -110 -44 -11 -5 -45 -19 -75 -30 -30 -11
-64 -25 -75 -30 -11 -5 -60 -25 -110 -44 -181 -69 -379 -148 -389 -153 -5 -4
14 -16 41 -29 51 -22 51 -23 44 -57 -5 -18 -6 -74 -4 -123 7 -134 7 -195 2
-239 -4 -38 -3 -39 34 -48 21 -5 41 -6 45 -2 10 9 8 193 -2 230 -10 37 -20
195 -12 195 6 0 77 -26 111 -40 11 -5 58 -24 105 -43 47 -19 94 -38 105 -42
11 -5 22 -9 25 -9 3 -1 19 -7 35 -13 44 -18 89 -36 95 -38 3 -1 14 -5 25 -10
121 -49 192 -75 204 -75 14 0 352 128 396 151 12 6 27 11 35 12 8 2 20 5 25 9
6 3 99 41 208 83 109 43 194 82 190 86 -5 4 -84 37 -178 74 -93 36 -179 70
-190 75 -47 20 -481 190 -486 190 -2 -1 -44 -17 -94 -36z"/>
<path d="M303 1103 c3 -5 8 -30 11 -58 3 -27 7 -59 10 -70 4 -25 15 -98 21
-150 3 -22 7 -51 10 -65 2 -14 7 -45 10 -70 3 -25 10 -70 15 -100 5 -30 12
-77 16 -105 3 -27 9 -53 12 -57 4 -4 116 -61 250 -127 l242 -121 243 121 c133
66 245 124 249 127 4 4 10 34 13 67 4 33 9 62 10 65 2 3 6 34 10 70 4 36 8 67
10 70 2 3 6 37 10 75 4 39 9 72 10 75 2 3 6 29 10 59 4 30 8 63 11 74 2 10 6
44 10 73 l6 54 -54 -21 c-84 -35 -199 -79 -247 -96 -31 -11 -39 -18 -30 -24 8
-5 21 -9 29 -9 21 0 85 -61 106 -101 12 -23 18 -56 19 -101 0 -58 -4 -72 -30
-110 -98 -138 -291 -122 -371 32 -17 33 -19 33 -22 12 -6 -39 -91 -119 -140
-132 -64 -17 -136 -3 -189 36 -52 39 -77 90 -79 161 -3 71 11 106 58 153 29
30 83 63 92 58 2 -2 7 -1 9 2 3 3 -34 20 -81 39 -48 19 -107 43 -132 54 -25
11 -49 20 -55 21 -5 1 -20 7 -32 14 -24 13 -47 16 -40 5z m656 -549 c8 -19 5
-33 -17 -75 -15 -29 -33 -54 -39 -56 -7 -3 -25 19 -41 48 -25 43 -29 56 -20
80 18 53 93 55 117 3z"/>
<path d="M603 894 c-49 -33 -71 -74 -69 -135 2 -58 35 -112 84 -135 141 -68
287 80 212 215 -47 82 -147 106 -227 55z"/>
<path d="M1045 911 c-35 -14 -84 -73 -91 -107 -20 -108 49 -196 155 -197 62
-1 113 30 140 87 26 53 26 88 1 141 -33 69 -132 105 -205 76z"/>
</g>
</svg>
