<?xml version="1.0" standalone="no"?>
<!DOCTYPE svg PUBLIC "-//W3C//DTD SVG 20010904//EN"
 "http://www.w3.org/TR/2001/REC-SVG-20010904/DTD/svg10.dtd">
<svg version="1.0" xmlns="http://www.w3.org/2000/svg"
 width="260.000000pt" height="260.000000pt" viewBox="0 0 260.000000 260.000000"
 preserveAspectRatio="xMidYMid meet">
<metadata>
Created by potrace 1.11, written by Peter Selinger 2001-2013
</metadata>
<g transform="translate(0.000000,260.000000) scale(0.100000,-0.100000)"
fill="#000000" stroke="none">
<path d="M0 1300 l0 -1300 1300 0 1300 0 0 1300 0 1300 -1300 0 -1300 0 0
-1300z m1806 640 c279 -111 514 -205 523 -210 13 -7 11 -11 -14 -20 -16 -6
-252 -99 -522 -206 l-493 -194 -421 166 c-231 91 -423 163 -427 159 -13 -13
-6 -140 12 -229 17 -84 20 -265 5 -281 -4 -3 -29 0 -57 7 l-52 11 8 41 c7 42
7 120 1 306 -2 58 -1 123 3 145 l8 41 -56 19 c-30 10 -57 22 -60 26 -2 4 152
69 343 145 192 75 425 167 518 205 94 37 171 68 172 69 1 0 230 -90 509 -200z
m-1029 -493 c104 -41 197 -77 208 -81 17 -7 15 -9 -18 -21 -86 -30 -149 -104
-168 -196 -17 -86 7 -159 74 -224 57 -55 105 -75 183 -75 94 0 194 69 225 154
7 20 16 36 19 36 3 0 12 -16 19 -36 42 -116 185 -181 315 -142 63 19 140 100
160 167 20 67 20 84 1 147 -24 82 -120 174 -181 174 -10 0 -15 3 -11 6 11 11
401 164 406 159 3 -4 -83 -648 -106 -783 -5 -32 -13 -37 -304 -183 l-299 -149
-300 150 c-165 83 -300 152 -300 155 0 11 -111 772 -115 793 -3 12 -3 22 0 22
2 0 89 -33 192 -73z m378 -185 c128 -89 107 -276 -37 -337 -53 -21 -96 -19
-154 10 -151 75 -137 292 22 351 54 20 120 10 169 -24z m448 27 c47 -13 106
-63 123 -106 23 -53 18 -130 -11 -179 -28 -48 -107 -94 -162 -94 -41 0 -100
24 -131 53 -85 79 -79 222 11 291 57 44 105 54 170 35z"/>
<path d="M1263 888 c-12 -6 -27 -23 -34 -39 -14 -34 -3 -67 43 -131 l30 -40
29 43 c45 69 53 94 40 128 -12 27 -48 52 -74 50 -7 0 -22 -5 -34 -11z"/>
<path d="M1015 1233 c-60 -16 -95 -67 -95 -139 0 -39 5 -51 33 -79 41 -41 93
-53 145 -33 108 41 109 199 2 242 -41 16 -51 17 -85 9z"/>
<path d="M1495 1220 c-49 -24 -75 -65 -75 -117 0 -97 104 -162 190 -118 46 24
70 62 70 112 0 108 -93 170 -185 123z"/>
</g>
</svg>
